<?xml version="1.0" encoding="UTF-8"?>
<svg id="Layer_2" data-name="Layer 2" xmlns="http://www.w3.org/2000/svg" xmlns:xlink="http://www.w3.org/1999/xlink" viewBox="0 0 1000 1000">
  <defs>
    <style>
      .cls-1 {
        fill: #fff;
        fill-rule: evenodd;
      }

      .cls-2 {
        fill: url(#linear-gradient);
      }
    </style>
    <linearGradient id="linear-gradient" x1="500" y1="2.44" x2="500" y2="1002.44" gradientUnits="userSpaceOnUse">
      <stop offset="0" stop-color="#2bc4ff"/>
      <stop offset="1" stop-color="#1f5ff4"/>
    </linearGradient>
  </defs>
  <g id="Layer_1-2" data-name="Layer 1">
    <g>
      <rect class="cls-2" width="1000" height="1000" rx="120" ry="120"/>
      <path class="cls-1" d="M687.65,497.21s78-40.25,78-173.32c0-154.3-133.84-157.1-133.84-157.1h-361.02c-40.52-.27-73.54,35.36-73.54,75.89v517.46c0,40.35,32.71,73.06,73.06,73.06h361.51s170.95-1.22,170.95-186c0-105.01-115.11-149.99-115.11-149.99ZM621.34,508.47l-24.04,25.89-119.33,120.59c-2.78,2.65-6.48,4.14-10.33,4.16l-97.46.49c-10.59-.19-15.8-12.96-8.38-20.5l128.04-129.99c5.55-5.65,5.6-14.68.12-20.38l-119.84-124.85c-5.94-6.19-1.56-16.49,7.01-16.49h102.26c2.53,0,4.99,1,6.82,2.78l134.94,138.25c5.36,5.6,5.43,14.39.17,20.07Z"/>
    </g>
  </g>
</svg>