<?xml version="1.0" encoding="UTF-8"?>
<svg id="Layer_2" data-name="Layer 2" xmlns="http://www.w3.org/2000/svg" viewBox="0 0 908.63 1000">
  <defs>
    <style>
      .cls-1 {
        fill: #27a4fb;
        fill-rule: evenodd;
      }
    </style>
  </defs>
  <g id="Layer_1-2" data-name="Layer 1">
    <path class="cls-1" d="M735.9,495.82s117.05-60.4,117.05-260.07C852.94,4.21,652.1,0,652.1,0H110.36C49.55-.4,0,53.07,0,113.88v776.5c0,60.55,49.08,109.63,109.63,109.63h542.48s256.53-1.83,256.53-279.11c0-157.57-172.74-225.07-172.74-225.07ZM636.39,512.7l-36.07,38.84-179.06,180.96c-4.17,3.98-9.72,6.21-15.49,6.25l-146.24.73c-15.9-.29-23.72-19.44-12.57-30.77l192.14-195.07c8.33-8.48,8.41-22.04.18-30.59l-179.83-187.35c-8.92-9.28-2.34-24.74,10.52-24.74h153.44c3.8,0,7.49,1.5,10.23,4.17l202.48,207.45c8.04,8.4,8.15,21.6.26,30.11Z"/>
  </g>
</svg>