<?xml version="1.0" encoding="UTF-8"?>
<svg id="Layer_2" data-name="Layer 2" xmlns="http://www.w3.org/2000/svg" viewBox="0 0 1600 496.71">
  <defs>
    <style>
      .cls-1 {
        fill: #27a4fb;
        fill-rule: evenodd;
      }

      .cls-2 {
        fill: #0f172a;
      }
    </style>
  </defs>
  <g id="Layer_1-2" data-name="Layer 1">
    <g>
      <path class="cls-1" d="M365.53,246.28s58.14-30,58.14-129.18C423.67,2.09,323.91,0,323.91,0H54.82C24.61-.2,0,26.36,0,56.56v385.69c0,30.08,24.38,54.45,54.45,54.45h269.45s127.42-.91,127.42-138.64c0-78.27-85.8-111.79-85.8-111.79ZM316.1,254.66l-17.92,19.29-88.94,89.88c-2.07,1.98-4.83,3.09-7.7,3.1l-72.64.36c-7.9-.15-11.78-9.66-6.24-15.28l95.44-96.89c4.14-4.21,4.17-10.95.09-15.19l-89.32-93.06c-4.43-4.61-1.16-12.29,5.23-12.29h76.22c1.89,0,3.72.74,5.08,2.07l100.58,103.04c3.99,4.17,4.05,10.73.13,14.96Z"/>
      <g>
        <path class="cls-2" d="M692.94,161.92c6.15,1.81,11.31,4.43,15.48,7.87,4.34,3.44,7.87,7.33,10.59,11.68,2.72,4.16,4.8,8.69,6.25,13.58,1.45,4.89,2.17,10.32,2.17,16.29,0,20.27-6.15,34.94-18.46,43.99-12.31,8.87-29.33,13.31-51.05,13.31h-92.59V78.56h84.45c10.5,0,19.82,1,27.97,2.99,8.15,1.81,15.02,4.71,20.64,8.69,5.79,3.98,10.14,9.05,13.03,15.21,3.08,5.97,4.62,13.12,4.62,21.45,0,1.99-.45,4.34-1.36,7.06-.91,2.72-2.35,5.52-4.34,8.42-1.81,2.9-4.25,5.7-7.33,8.42-2.9,2.72-6.43,4.98-10.59,6.79-1.99.9-4.34,1.63-7.06,2.17-2.72.36-5.16.63-7.33.81v.54c1.63-.18,3.26-.27,4.89-.27.91,0,2.26.09,4.07.27,1.81,0,3.8.27,5.97.81ZM597.9,108.16v51.59h63c9.96,0,17.02-2.17,21.18-6.52,4.34-4.53,6.52-10.86,6.52-19.01,0-4.89-1-8.96-2.99-12.22-1.99-3.26-4.71-5.88-8.15-7.87-3.26-2.17-7.06-3.71-11.4-4.62-4.34-.91-8.87-1.36-13.58-1.36h-54.58ZM660.35,238.49c4.89,0,9.5-.63,13.85-1.9,4.34-1.27,8.15-3.08,11.4-5.43,3.26-2.35,5.79-5.34,7.6-8.96,1.99-3.62,2.99-7.87,2.99-12.76,0-7.96-2.72-13.94-8.15-17.92-5.43-3.98-12.94-5.97-22.54-5.97h-67.61v52.95h62.45ZM743.77,70.41h32.58v198.22h-32.58V70.41ZM891.67,239.31c-2.53,5.43-5.52,10.14-8.96,14.12-3.26,3.98-6.88,7.33-10.86,10.05-3.98,2.53-8.24,4.34-12.76,5.43-4.34,1.27-8.87,1.9-13.58,1.9-9.96,0-18.37-1.81-25.25-5.43-6.7-3.8-12.13-8.87-16.29-15.21-3.98-6.52-6.88-14.21-8.69-23.08-1.81-8.87-2.72-18.37-2.72-28.51v-65.71h32.58v65.71c0,6.88.72,12.85,2.17,17.92,1.45,4.89,3.53,8.96,6.25,12.22,2.9,3.08,6.34,5.43,10.32,7.06,4.16,1.45,8.78,2.17,13.85,2.17,3.26,0,7.06-.72,11.4-2.17,4.34-1.45,8.42-4.16,12.22-8.15,3.8-3.98,7.06-9.5,9.78-16.56,2.72-7.06,4.07-16.2,4.07-27.43v-50.78h32.58v135.77h-32.58v-28.51c0-2.9.18-5.97.54-9.23.36-3.44.81-6.52,1.36-9.23h-.54c-.54,2.72-1.27,5.7-2.17,8.96-.72,3.26-1.63,6.15-2.72,8.69ZM1097.93,200.75v4.07c0,.54-.09,1.72-.27,3.53h-122.46c.72,5.97,2.35,11.22,4.89,15.75,2.72,4.53,6.06,8.33,10.05,11.4,4.16,3.08,9.05,5.43,14.66,7.06,5.79,1.45,11.95,2.17,18.46,2.17,5.25,0,10.05-.36,14.39-1.09,4.53-.9,8.6-2.26,12.22-4.07,3.62-1.99,6.97-4.53,10.05-7.6,3.08-3.08,5.52-6.97,7.33-11.68l30.14,2.72c-2.17,8.87-5.79,16.38-10.86,22.54-5.07,6.15-10.95,11.04-17.65,14.66-6.52,3.44-13.76,5.97-21.73,7.6-7.78,1.63-16.02,2.44-24.71,2.44-10.68,0-20.73-1.36-30.14-4.07-9.41-2.9-17.74-7.24-24.98-13.03-7.24-5.79-12.94-13.03-17.11-21.72-4.16-8.69-6.25-18.92-6.25-30.68s2.08-21.99,6.25-30.68c4.16-8.69,9.87-15.93,17.11-21.72,7.24-5.79,15.57-10.05,24.98-12.76,9.41-2.9,19.46-4.34,30.14-4.34s20.36,1.45,29.59,4.34c9.23,2.9,17.29,7.24,24.17,13.03,6.88,5.61,12.22,12.76,16.02,21.45,3.8,8.69,5.7,18.92,5.7,30.68ZM1023.26,155.4c-6.16,0-12.4,1-18.73,2.99-6.15,1.99-11.49,5.16-16.02,9.5-4.34,4.34-7.69,9.5-10.05,15.48-2.35,5.97-3.53,12.4-3.53,19.28,0,1.81.09,3.71.27,5.7.36-4.71,1.09-8.06,2.17-10.05,1.27-2.17,2.81-4.07,4.62-5.7,1.99-1.63,4.43-2.72,7.33-3.26,3.08-.54,6.25-.81,9.5-.81h68.7c-1.45-5.79-3.44-10.68-5.97-14.66-2.35-3.98-5.34-7.33-8.96-10.05-3.62-2.72-7.96-4.71-13.03-5.97-5.07-1.45-10.5-2.26-16.29-2.44ZM1147.31,208.89c.54,9.96,5.16,17.56,13.85,22.81,8.87,5.07,20.55,7.69,35.03,7.87h1.63c16.11,0,28.78-2.44,38.02-7.33,9.41-5.07,14.12-12.85,14.12-23.35,0-6.52-3.26-11.31-9.78-14.39-6.52-3.08-14.66-5.43-24.44-7.06-9.78-1.81-20.36-3.44-31.77-4.89-11.41-1.45-21.99-3.8-31.77-7.06-9.78-3.44-17.92-8.33-24.44-14.66-6.52-6.34-9.78-15.3-9.78-26.88,0-10.14,2.08-18.92,6.25-26.34,4.34-7.42,10.14-13.49,17.38-18.19,7.24-4.71,15.57-8.15,24.98-10.32,9.41-2.17,19.28-3.26,29.59-3.26h2.44c10.5.18,20.28,1.36,29.33,3.53,9.05,2.17,16.93,5.52,23.63,10.05,6.7,4.34,12.13,9.96,16.29,16.84,4.17,6.7,6.52,14.66,7.06,23.89l-30.95,2.72c-.72-8.87-4.71-15.48-11.95-19.82-7.24-4.53-18.37-6.79-33.4-6.79s-27.24,2.35-35.57,7.06c-8.33,4.71-12.49,11.5-12.49,20.36,0,5.97,3.26,10.32,9.78,13.03,6.52,2.53,14.66,4.62,24.44,6.25,9.78,1.45,20.36,2.9,31.77,4.34,11.4,1.27,21.99,3.71,31.77,7.33,9.78,3.44,17.92,8.51,24.44,15.21,6.52,6.7,9.78,16.02,9.78,27.97,0,6.52-1.27,13.49-3.8,20.91-2.35,7.24-6.79,13.94-13.31,20.09-6.34,6.15-15.11,11.22-26.34,15.21-11.04,3.98-25.16,5.97-42.36,5.97-15.75,0-28.78-1.72-39.1-5.16-10.13-3.44-18.37-7.87-24.71-13.31-6.16-5.43-10.5-11.68-13.03-18.74-2.53-7.06-3.98-14.21-4.35-21.45l31.77-2.44ZM1399.51,132.87h46.43l-63.81,53.76,67.88,81.73h-11.67v.27l-.27-.27h-29.33l-51.05-62.18-26.07,21.45v41h-32.86V78.56h32.86l-.82,102.1c0,3.08-.45,6.43-1.35,10.05-.91,3.44-2.09,6.61-3.53,9.5h.54c1.45-2.72,3.26-5.52,5.43-8.42,2.17-2.9,4.43-5.34,6.79-7.33l60.82-51.59ZM1564.7,132.87h35.3l-63.81,155.05c-2.89,7.6-6.42,13.76-10.59,18.46-3.98,4.89-8.24,8.69-12.76,11.4-4.53,2.9-9.14,4.89-13.85,5.97-4.52,1.09-8.78,1.63-12.76,1.63h-32.32v-25.25h17.11c1.81,0,4.17-.27,7.06-.81,2.9-.36,5.97-1.18,9.23-2.44,3.26-1.09,6.25-2.72,8.96-4.89,2.72-1.99,4.71-4.62,5.97-7.87l6.25-18.74-55.12-132.51h35.57l33.94,83.63c1.09,3.08,1.9,6.43,2.44,10.05.73,3.62,1.09,6.97,1.09,10.05h.55c0-3.26.27-6.61.81-10.05.73-3.62,1.63-6.97,2.72-10.05l34.21-83.63Z"/>
        <path class="cls-2" d="M614.63,316.03c6.37,0,12.04.8,17.03,2.39,5.09,1.49,9.39,3.77,12.89,6.84,3.5,2.97,6.16,6.69,7.96,11.14,1.91,4.46,2.86,9.66,2.86,15.6,0,4.46-.95,8.91-2.86,13.37-1.8,4.35-4.46,8.28-7.96,11.78-3.5,3.4-7.8,6.15-12.89,8.28-4.99,2.12-10.66,3.18-17.03,3.18h-33.59v38.84h-19.1v-111.42h52.69ZM612.24,373.17c3.08,0,6.05-.53,8.91-1.59,2.87-1.17,5.36-2.65,7.48-4.46,2.23-1.91,4.03-4.14,5.41-6.69,1.38-2.55,2.07-5.2,2.07-7.96,0-3.5-.69-6.53-2.07-9.07-1.27-2.55-3.02-4.62-5.25-6.21-2.12-1.7-4.67-2.92-7.64-3.66-2.86-.85-5.84-1.27-8.91-1.27h-31.2v40.91h31.2ZM700.95,347.39c5.2,0,10.24.53,15.12,1.59,4.99,1.06,9.39,2.81,13.21,5.25,3.82,2.33,6.9,5.52,9.23,9.55,2.33,3.93,3.5,8.86,3.5,14.8v28.81c0,2.02.37,3.4,1.11,4.14.85.64,2.18.95,3.98.95h2.55v14.96h-12.1c-2.12,0-4.09-.32-5.89-.96-1.8-.74-3.34-1.7-4.62-2.86-1.27-1.27-2.28-2.71-3.02-4.3-.74-1.59-1.11-3.34-1.11-5.25v-6.53c-1.17,5.31-3.55,9.44-7.16,12.42-3.5,2.97-7.27,5.09-11.3,6.37-4.03,1.17-8.22,1.75-12.57,1.75-1.06,0-3.29-.11-6.69-.32-3.4-.21-7.16-1.27-11.3-3.18-4.14-1.91-7.59-4.51-10.35-7.8-2.76-3.4-4.14-7.37-4.14-11.94,0-5.84,1.54-10.29,4.62-13.37,3.18-3.08,7.16-5.31,11.94-6.69,4.78-1.38,9.87-2.18,15.28-2.39,5.52-.21,10.61-.37,15.28-.48,4.67-.21,8.54-.58,11.62-1.11,3.18-.64,4.78-2.02,4.78-4.14-.21-5.31-2.18-9.07-5.89-11.3-3.71-2.23-9.02-3.34-15.92-3.34-2.86,0-5.62.21-8.28.64-2.65.42-4.99,1.17-7,2.23-1.91.95-3.5,2.33-4.78,4.14-1.27,1.8-2.07,4.14-2.39,7l-17.51-1.59c.42-4.88,1.86-9.02,4.3-12.42,2.55-3.5,5.68-6.31,9.39-8.44,3.82-2.23,7.96-3.82,12.42-4.78,4.56-.96,9.13-1.43,13.69-1.43ZM679.15,404.37c0,2.87,1.06,5.2,3.18,7,2.23,1.7,4.56,2.81,7,3.34,2.55.42,4.83.64,6.84.64,1.59,0,3.71-.16,6.37-.48,2.76-.42,5.73-1.27,8.91-2.55,3.29-1.38,6-3.13,8.12-5.25,2.23-2.23,3.34-4.83,3.34-7.8v-9.71c-1.91,1.38-4.35,2.28-7.32,2.71-2.86.32-5.94.53-9.23.64-3.18.11-6.42.27-9.71.48-3.18.11-6.1.48-8.75,1.11-2.55.64-4.67,1.75-6.37,3.34-1.59,1.49-2.39,3.66-2.39,6.53ZM813.96,363.78l-24.99.16c-2.23,0-4.03.16-5.41.48-1.38.21-2.44.74-3.18,1.59-.74.85-1.27,2.12-1.59,3.82-.32,1.59-.48,3.71-.48,6.37v51.25h-19.1v-58.42c0-3.61.37-6.74,1.11-9.39.85-2.65,2.12-4.83,3.82-6.53,1.8-1.7,4.03-2.97,6.69-3.82,2.65-.96,5.84-1.43,9.55-1.43h33.59v15.92ZM816.41,387.66c0-6.9,1.22-12.89,3.66-17.99,2.44-5.09,5.73-9.34,9.87-12.73,4.24-3.4,9.13-5.89,14.64-7.48,5.62-1.7,11.51-2.55,17.67-2.55,4.78,0,9.5.64,14.17,1.91,4.78,1.17,9.07,3.02,12.89,5.57,3.93,2.44,7.22,5.57,9.87,9.39,2.76,3.71,4.62,8.06,5.57,13.05l-17.67,1.75c-.85-2.44-2.02-4.67-3.5-6.69-1.49-2.02-3.24-3.71-5.25-5.09-2.02-1.38-4.4-2.44-7.16-3.18-2.65-.85-5.62-1.27-8.91-1.27h-.96c-3.5,0-6.79.58-9.87,1.75-3.08,1.06-5.84,2.71-8.28,4.93-2.44,2.12-4.35,4.78-5.73,7.96-1.27,3.08-1.91,6.63-1.91,10.66s.64,7.64,1.91,10.82c1.38,3.08,3.24,5.73,5.57,7.96,2.44,2.12,5.2,3.71,8.28,4.78,3.08,1.06,6.42,1.59,10.03,1.59h.96c6.37-.11,11.57-1.43,15.6-3.98,4.14-2.55,7.16-6.47,9.07-11.78l17.83,1.75c-.95,4.99-2.81,9.34-5.57,13.05-2.65,3.71-5.94,6.79-9.87,9.23-3.82,2.44-8.12,4.3-12.89,5.57-4.67,1.17-9.39,1.75-14.17,1.75-6.15,0-12.04-.8-17.67-2.39-5.52-1.7-10.4-4.24-14.64-7.64-4.14-3.4-7.43-7.64-9.87-12.73-2.44-5.09-3.66-11.09-3.66-17.99ZM1001.63,387.66v2.39c0,.32-.05,1.01-.16,2.07h-71.79c.42,3.5,1.38,6.58,2.86,9.23,1.59,2.65,3.55,4.88,5.89,6.69,2.44,1.8,5.31,3.18,8.6,4.14,3.4.85,7,1.27,10.82,1.27,3.08,0,5.89-.21,8.44-.64,2.65-.53,5.04-1.33,7.16-2.39,2.12-1.17,4.09-2.65,5.89-4.46,1.8-1.8,3.24-4.09,4.3-6.84l17.67,1.59c-1.27,5.2-3.4,9.6-6.37,13.21-2.97,3.61-6.42,6.47-10.35,8.6-3.82,2.02-8.06,3.5-12.73,4.46-4.56.96-9.39,1.43-14.48,1.43-6.26,0-12.15-.8-17.67-2.39-5.52-1.7-10.4-4.24-14.64-7.64-4.24-3.4-7.59-7.64-10.03-12.73-2.44-5.09-3.66-11.09-3.66-17.99s1.22-12.89,3.66-17.99,5.78-9.34,10.03-12.73c4.24-3.4,9.13-5.89,14.64-7.48,5.52-1.7,11.41-2.55,17.67-2.55s11.94.85,17.35,2.55c5.41,1.7,10.13,4.24,14.17,7.64,4.03,3.29,7.16,7.48,9.39,12.57,2.23,5.09,3.34,11.09,3.34,17.99ZM957.86,361.08c-3.61,0-7.27.58-10.98,1.75-3.61,1.17-6.74,3.02-9.39,5.57-2.55,2.55-4.51,5.57-5.89,9.07-1.38,3.5-2.07,7.27-2.07,11.3,0,1.06.05,2.18.16,3.34.21-2.76.64-4.72,1.27-5.89.74-1.27,1.64-2.39,2.71-3.34,1.17-.95,2.6-1.59,4.3-1.91,1.8-.32,3.66-.48,5.57-.48h40.27c-.85-3.4-2.02-6.26-3.5-8.6-1.38-2.33-3.13-4.3-5.25-5.89-2.12-1.59-4.67-2.76-7.64-3.5-2.97-.85-6.15-1.33-9.55-1.43ZM1011.95,311.25h19.1v116.2h-19.1v-116.2Z"/>
      </g>
    </g>
  </g>
</svg>